PathFileType	4	(X/Y/Z)	D:\TRACE\spotREDO_2-26-24\spot_justArm_Motion_3_2-v60.trc
DataRate	CameraRate	NumFrames	NumMarkers	Units	OrigDataRate	OrigDataStartFrame	OrigNumFrames
100.00	100.00	      21	9	mm	100.00	5251	      7000
Frame#	Time	front left toe			Front right toe			aft left toe			aft right toe			Arm			FL body			FR body			AL Body			AR Body			
		X1	Y1	Z1	X2	Y2	Z2	X3	Y3	Z3	X4	Y4	Z4	X5	Y5	Z5	X6	Y6	Z6	X7	Y7	Z7	X8	Y8	Z8	X9	Y9	Z9	

5251	52.500	-214.16618	19.85155	-269.47882	272.43130	22.27877	-235.84782	-248.42923	24.03168	342.70676	237.08318	27.35290	383.67300	-98.13445	795.91919	-724.49567	-43.60521	559.76642	-321.36722	111.51994	563.11517	-315.77850	-82.34496	547.13562	561.72314	65.74039	546.64752	569.02338	
5252	52.510	-213.96524	19.70951	-269.62671	272.63260	22.10747	-235.98407	-248.40804	24.20381	342.61990	237.11783	27.75526	383.78711	-94.98425	795.65723	-723.13464	-42.58085	559.30670	-321.83392	112.78291	562.56989	-315.63147	-83.36637	547.75110	561.24060	64.67649	547.12830	568.86328	
5253	52.520	-213.68729	19.58562	-269.81616	272.92917	21.82414	-236.00630	-248.64987	24.41325	342.41205	237.08107	28.13595	383.80829	-96.56586	795.52899	-724.70007	-41.57064	558.89282	-322.23111	113.76955	562.05457	-315.63834	-84.35188	548.26172	560.75916	63.62972	547.53180	568.80725	
5254	52.530	-213.56110	19.64562	-270.13138	273.33340	21.56655	-235.68758	-248.78976	24.35961	342.23734	236.89345	28.35378	383.74319	-96.79630	795.41913	-724.68054	-40.76154	558.82269	-323.02496	115.02349	561.56659	-315.77634	-85.41399	548.73291	560.17877	62.22591	548.09760	568.40302	
5255	52.540	-213.36424	19.64052	-270.52838	273.73322	21.07360	-235.63106	-248.76103	24.29923	342.11487	236.85233	28.59015	383.69894	-97.66727	795.27911	-724.32526	-39.64949	558.20465	-323.31403	116.01911	561.06744	-315.78854	-86.36225	549.18127	559.80249	61.72443	548.66162	568.59967	
5256	52.550	-213.16443	19.61258	-270.76984	273.95959	20.80954	-235.37833	-248.76173	24.29116	342.00137	236.79626	28.76827	383.68201	-98.69287	795.44604	-724.13501	-38.55560	557.69202	-323.78268	116.97315	560.54181	-315.93613	-86.87833	549.67163	559.43494	60.84312	548.93689	568.05273	
5257	52.560	-213.04657	19.50202	-270.86270	274.21014	20.69837	-235.29817	-248.71695	24.35871	341.88443	236.72942	28.90729	383.66885	-100.21706	795.36536	-723.75946	-37.21109	556.91687	-323.58121	117.92103	560.16150	-316.15417	-87.09838	550.21436	558.99194	60.36343	549.46851	567.87109	
5258	52.570	-213.05594	19.42430	-270.96710	274.24734	20.69853	-235.26613	-248.76779	24.57335	341.69431	236.77463	29.04102	383.63971	-101.77054	795.17401	-723.23578	-36.70404	556.45319	-323.89417	118.57262	559.71692	-316.38046	-87.22292	550.61682	558.57080	60.49563	549.93927	567.62640	
5259	52.580	-213.04605	19.35760	-271.00320	274.25699	20.61976	-235.34283	-248.57945	24.87252	341.46747	236.75043	29.11386	383.53516	-103.17701	794.79974	-722.62830	-36.38145	555.92761	-324.12674	118.79511	559.25781	-316.57208	-86.85819	551.08087	558.30682	60.82954	550.43414	567.31995	
5260	52.590	-213.06474	19.24259	-271.03024	274.26547	20.63711	-235.48163	-248.32242	25.09231	341.39163	236.99516	29.24643	383.47739	-105.23745	794.93506	-723.08258	-36.12615	555.27838	-324.30786	118.77216	558.90704	-317.02109	-86.64550	551.47101	557.85284	61.48769	550.91138	567.38428	
5261	52.600	-213.07771	19.09505	-270.85309	274.29092	20.60821	-235.77927	-248.05849	25.12019	341.43585	237.34335	29.27421	383.40106	-106.67093	794.63409	-722.54871	-36.44336	554.95648	-324.55417	118.66423	558.49603	-317.29752	-85.45551	551.78162	558.03998	62.18521	551.33392	566.70349	
5262	52.610	-212.95963	18.83815	-270.79102	274.20203	20.50936	-236.08820	-247.84512	25.14017	341.41602	237.49443	29.31101	383.38165	-107.86455	794.48828	-722.76007	-36.82725	554.84418	-324.68289	118.46363	558.34045	-317.60641	-84.52373	552.09174	558.04047	63.11880	551.64514	566.52747	
5263	52.620	-212.94302	18.74950	-270.65842	274.27155	20.52431	-236.24796	-247.64531	25.26228	341.40814	237.55443	29.19765	383.26709	-108.49751	793.98083	-722.92303	-37.61645	555.12677	-325.20477	118.05416	558.32971	-317.89850	-83.62222	552.19971	557.93951	64.52284	551.95123	566.61304	
5264	52.630	-212.96657	18.69415	-270.54343	274.55243	21.05840	-235.92653	-247.37430	25.43528	341.44559	237.66005	29.05266	383.08539	-109.12936	792.98688	-723.27490	-37.85113	554.94940	-324.78992	117.40056	558.37854	-318.23013	-82.48512	552.31476	558.12799	65.20139	551.92664	566.10797	
5265	52.640	-213.02809	18.65779	-270.49503	274.30746	20.88096	-236.48264	-247.28343	25.63413	341.51135	238.14310	29.13713	383.04709	-108.97903	791.39728	-724.07098	-38.26917	555.26050	-324.73477	116.78510	558.65637	-318.35529	-81.37085	552.36353	558.23059	66.24504	551.94049	565.88843	
5266	52.650	-213.10461	18.57465	-270.43790	274.16843	21.10098	-236.63290	-247.11826	25.64800	341.58099	238.23508	29.08052	382.87827	-108.31672	788.97626	-725.27795	-38.85605	555.69592	-324.47299	116.24631	559.08929	-318.40482	-80.29910	552.42682	558.44891	67.22348	551.91699	565.95795	
5267	52.660	-213.12593	18.54758	-270.38763	274.11371	21.12425	-236.71631	-246.99507	25.84433	341.63818	238.52553	28.99487	382.68826	-107.25001	785.61407	-727.32532	-39.89964	556.36304	-324.22495	115.79202	559.61163	-318.44839	-79.64342	552.38324	558.64233	68.49388	551.77063	566.36603	
5268	52.670	-213.05873	18.50500	-270.41498	274.17026	21.21802	-236.74458	-246.97427	26.00749	341.61432	238.71606	29.09558	382.65686	-105.63097	781.37366	-730.04083	-40.53681	556.99255	-323.73526	115.18587	560.08087	-318.45419	-78.87175	552.54962	559.19995	69.42352	552.00024	566.72742	
5269	52.680	-213.02576	18.46514	-270.40167	274.47079	21.52830	-236.45445	-246.95557	26.24648	341.58124	238.88023	29.15609	382.59641	-103.57152	776.41565	-733.04950	-40.25991	557.07855	-323.51822	114.68137	560.57349	-318.00705	-78.52463	552.66174	559.50598	69.33721	552.05756	566.43903	
5270	52.690	-212.87674	18.35640	-270.42596	274.40097	21.14779	-236.83595	-246.92072	26.34077	341.52847	238.95255	29.36592	382.56232	-101.23884	770.64093	-736.09863	-39.72748	557.05859	-323.51892	114.31178	561.01801	-317.63297	-78.40129	552.95935	559.39380	69.71758	552.49091	566.52820	
5271	52.700	-212.74010	18.28320	-270.40527	274.84512	21.41153	-236.51799	-246.72887	26.42147	341.49728	238.87151	29.52015	382.45520	-98.72438	763.88300	-739.34106	-40.82626	557.82404	-322.88165	114.35657	561.42096	-317.68423	-78.04580	553.52173	560.17670	69.56857	553.18817	566.79236	
